name C:/MyDriveSym/Projects/mobilecap/Data\Session20210820_0002\mocap\ForceDataProcessed\walkingTS1_forces.mot
datacolumns 19
datarows 9
range 1.12450000 1.12850000
endheader 
time	R_ground_force_vx	R_ground_force_vy	R_ground_force_vz	R_ground_force_px	R_ground_force_py	R_ground_force_pz	R_ground_torque_x	R_ground_torque_y	R_ground_torque_z	L_ground_force_vx	L_ground_force_vy	L_ground_force_vz	L_ground_force_px	L_ground_force_py	L_ground_force_pz	L_ground_torque_x	L_ground_torque_y	L_ground_torque_z	
          1.12450000	          0.00000000	          0.00000000	          0.00000000	          1.26545700	          0.00000000	         -0.09192400	          0.00000000	          0.00000000	          0.00000000	         27.81708900	        827.80876400	         32.88222400	          1.02771500	          0.00600000	         -0.24966700	          0.00000000	          5.98795600	          0.00000000	
          1.12500000	          0.00000000	          0.00000000	          0.00000000	          1.26660100	          0.00000000	         -0.09191100	          0.00000000	          0.00000000	          0.00000000	         28.04894400	        828.27066300	         32.92071300	          1.02791200	          0.00600000	         -0.24965700	          0.00000000	          5.98922100	          0.00000000	
          1.12550000	          0.00000000	          0.00000000	          0.00000000	          1.26774600	          0.00000000	         -0.09189800	          0.00000000	          0.00000000	          0.00000000	         28.28180300	        828.73056800	         32.95920800	          1.02810900	          0.00600000	         -0.24964600	          0.00000000	          5.99033300	          0.00000000	
          1.12600000	          0.00000000	          0.00000000	          0.00000000	          1.26889000	          0.00000000	         -0.09188600	          0.00000000	          0.00000000	          0.00000000	         28.51566200	        829.18840900	         32.99770300	          1.02830500	          0.00600000	         -0.24963600	          0.00000000	          5.99129300	          0.00000000	
          1.12650000	          0.00000000	          0.00000000	          0.00000000	          1.27003500	          0.00000000	         -0.09187300	          0.00000000	          0.00000000	          0.00000000	         28.75051600	        829.64411500	         33.03619200	          1.02850000	          0.00600000	         -0.24962600	          0.00000000	          5.99210100	          0.00000000	
          1.12700000	          0.00000000	          0.00000000	          0.00000000	          1.27118000	          0.00000000	         -0.09186000	          0.00000000	          0.00000000	          0.00000000	         28.98636200	        830.09761600	         33.07466900	          1.02869500	          0.00600000	         -0.24961600	          0.00000000	          5.99275600	          0.00000000	
          1.12750000	          0.00000000	          0.00000000	          0.00000000	          1.27232400	          0.00000000	         -0.09184700	          0.00000000	          0.00000000	          0.00000000	         29.22319500	        830.54884100	         33.11312900	          1.02889000	          0.00600000	         -0.24960600	          0.00000000	          5.99325800	          0.00000000	
          1.12800000	          0.00000000	          0.00000000	          0.00000000	          1.27346900	          0.00000000	         -0.09183500	          0.00000000	          0.00000000	          0.00000000	         29.46100900	        830.99771800	         33.15156400	          1.02908400	          0.00600000	         -0.24959600	          0.00000000	          5.99360800	          0.00000000	
          1.12850000	          0.00000000	          0.00000000	          0.00000000	          1.27461300	          0.00000000	         -0.09182200	          0.00000000	          0.00000000	          0.00000000	         29.69980200	        831.44417500	         33.18997000	          1.02927700	          0.00600000	         -0.24958700	          0.00000000	          5.99380500	          0.00000000	
